/* XPM */
static char *result[] = {
/* columns rows colors chars-per-pixel */
"32 32 241 2 ",
"   c black",
".  c gray5",
"X  c #101010",
"o  c #131313",
"O  c #161616",
"+  c gray9",
"@  c #1F1814",
"#  c #191919",
"$  c gray12",
"%  c #2D1F17",
"&  c #201F24",
"*  c #222222",
"=  c #232323",
"-  c #212027",
";  c #222126",
":  c gray14",
">  c gray15",
",  c #272727",
"<  c #292523",
"1  c #282827",
"2  c #28272E",
"3  c gray16",
"4  c #2A2A2A",
"5  c #2B2B2A",
"6  c gray17",
"7  c #29282D",
"8  c #2B2B2C",
"9  c #2C2C2C",
"0  c #2D2E2D",
"q  c #292930",
"w  c #2D2C35",
"e  c #2E2D35",
"r  c #2F2F34",
"t  c #2F2E37",
"y  c #302F37",
"u  c #323232",
"i  c #333237",
"p  c #343434",
"a  c gray22",
"s  c #3A3A3A",
"d  c #383740",
"f  c #3B3A44",
"g  c #3C3C45",
"h  c #3D3C46",
"j  c gray25",
"k  c #444444",
"l  c #464646",
"z  c #41404B",
"x  c #42414C",
"c  c #43424D",
"v  c #43424E",
"b  c #44434E",
"n  c #44434F",
"m  c #45434F",
"M  c #45444F",
"N  c #484848",
"B  c #494949",
"V  c #4B4B4B",
"C  c gray30",
"Z  c gray31",
"A  c #454450",
"S  c #464550",
"D  c #474551",
"F  c #484753",
"G  c #494753",
"H  c #494855",
"J  c #4A4955",
"K  c #4B4A56",
"L  c #4C4B57",
"P  c #4B4A58",
"I  c #4C4B58",
"U  c #4D4B58",
"Y  c #4E4C59",
"T  c #4F4E5B",
"R  c #555555",
"E  c #565655",
"W  c #565656",
"Q  c gray34",
"!  c #53515F",
"~  c #5A5A5A",
"^  c #5F5F5F",
"/  c #545260",
"(  c #555361",
")  c #555362",
"_  c #565463",
"`  c #575564",
"'  c #575565",
"]  c #5A5869",
"[  c #5D5A6C",
"{  c #625F75",
"}  c #646464",
"|  c #676767",
" . c #6D6D6D",
".. c #6F6F6F",
"X. c #626072",
"o. c #646174",
"O. c #666378",
"+. c #69677C",
"@. c #6C697F",
"#. c gray44",
"$. c #7B7B7B",
"%. c #7C7C7C",
"&. c gray49",
"*. c #945129",
"=. c #926850",
"-. c #6B6980",
";. c #6C6984",
":. c #6F6C87",
">. c #716E88",
",. c #73708B",
"<. c #77738E",
"1. c #838281",
"2. c gray51",
"3. c #868382",
"4. c #848484",
"5. c gray52",
"6. c #868686",
"7. c gray53",
"8. c #888888",
"9. c #898989",
"0. c gray54",
"q. c #8B8B8B",
"w. c gray55",
"e. c #8D8D8D",
"r. c #8E8E8E",
"t. c gray56",
"y. c #8F9192",
"u. c #909090",
"i. c gray57",
"p. c #929292",
"a. c #939393",
"s. c gray58",
"d. c #959595",
"f. c gray59",
"g. c #979797",
"h. c #989898",
"j. c gray60",
"k. c #9A9A9A",
"l. c #9B9B9B",
"z. c gray61",
"x. c #9D9D9D",
"c. c gray62",
"v. c #9F9F9F",
"b. c #A0A0A0",
"n. c gray63",
"m. c #A2A2A2",
"M. c gray64",
"N. c #A4A3A2",
"B. c #A4A4A4",
"V. c #A5A5A5",
"C. c gray65",
"Z. c #A7A7A7",
"A. c gray66",
"S. c #A9A9A9",
"D. c gray67",
"F. c #ACACAC",
"G. c gray68",
"H. c #AEAEAE",
"J. c #AFAFAF",
"K. c gray69",
"L. c #B1B1B1",
"P. c #B2B2B2",
"I. c gray70",
"U. c #B4B4B4",
"Y. c gray71",
"T. c #B6B6B6",
"R. c #B7B7B7",
"E. c gray72",
"W. c #B9B9B9",
"Q. c gray73",
"!. c #BBBBBB",
"~. c #BCBCBC",
"^. c gray74",
"/. c gray",
"(. c gray75",
"). c #C4A18A",
"_. c #C0C0C0",
"`. c #C1C1C1",
"'. c gray76",
"]. c #C3C3C3",
"[. c gray77",
"{. c #C5C5C5",
"}. c #C6C6C6",
"|. c gray78",
" X c #C8C8C8",
".X c gray79",
"XX c #CACACA",
"oX c #CACBCB",
"OX c #CBCBCB",
"+X c gray80",
"@X c #CDCDCD",
"#X c #CECECE",
"$X c gray81",
"%X c #D0D0D0",
"&X c gray82",
"*X c #D2D2D2",
"=X c LightGray",
"-X c gray83",
";X c #D5D5D5",
":X c gray84",
">X c #D7D7D7",
",X c #D8D8D8",
"<X c gray85",
"1X c #DADADA",
"2X c gray86",
"3X c gainsboro",
"4X c #DDDDDD",
"5X c gray87",
"6X c #DFDFDF",
"7X c gray88",
"8X c #E1E1E1",
"9X c #E2E2E2",
"0X c gray89",
"qX c #E4E4E4",
"wX c gray90",
"eX c #E6E6E6",
"rX c #E7E7E7",
"tX c gray91",
"yX c #E9E9E9",
"uX c #EAEAEA",
"iX c gray92",
"pX c #ECECEC",
"aX c gray93",
"sX c #EEEEEE",
"dX c #EFEFEF",
"fX c gray94",
"gX c #F1F1F1",
"hX c gray95",
"jX c #F4F4F4",
"kX c gray96",
"lX c #F6F6F6",
"zX c gray97",
"xX c #F8F8F8",
"cX c #F9F9F9",
"vX c gray98",
"bX c #FBFBFB",
"nX c gray99",
"mX c #FDFDFD",
"MX c #FEFEFE",
"NX c white",
"BX c None",
/* pixels */
"BXBXBXBXBXBXBXBXBXBXBXBXBXBXBXBXBXBXBXBXBXBXBXBXw.t.e.BXBXBXBXBX",
"BXBXBXBXBXBXBXBXBXBXBXBXBXBXBXBXBXBXBXBXBXBXBXh._.&XI.0.BXBXBXBX",
"BXBXBXBXBXBXBXBXBXBXBXBXBXBXBXBXBXBXBXBXBXBXe.~.&X6X0XK.0.BXBXBX",
"BXBXBXBXBXBXBXBXW.(.(.(.T.g.c.x.x.c.t.BXBXBXe.!.:XgXxXtXW.p.BXBX",
"BXBXBXBXBXBXl.B.}.<X1X<X@X{.;X3X2X:XL.M.9.BXt.[.:XfXNXNXgXx.BXBX",
"BXBXBXBXv.H..X>X,XqXwX0X;XyX0X6XeX5X-X%XK.V.u.}.:XfXNXNXdXK.q.BX",
"BXBXBXm.=XeX9X2XfXtXfX1XqXNXpX6XaXdX1XeX,X9Xi.E.OXfXNXNXdX].r.BX",
"BXBXv.eXcXcX9X4XcXcXvX;XuXNXcXzXbXnXkX0XaX3XC.l.{.yXzXlXtX].r.BX",
"BXBXC.NXNXNXpXfXMXNXnX9XuXNXNXNXNXNXNX1XzXdXL.d.@X1XhXgX1X/.r.BX",
"BX_.fXNXNXNXsXlXNXmXiXwXiXcX8XtXNXNXNXzX5XjXR.V.B.&X5XtX>X^.i.BX",
"BXb.mXmXMXtX4XrXxXiXwX0XuXzX3X<XjXMXmXpX-X4Xp.q.s.[.&X5X,X^.].t.",
"BXb.eXrXtX,X1XeXeXwX8X;X0XeX<X>X0XqXrXwX-X3XR.D.a.`.#X4X:X(..Xt.",
"t.=X6X4X9X$X:X0XqXqX*X+X-X4X}. X@X>X0XwX,X#X^.^.s.E.].3X}. X&Xt.",
"i.1XXX~.OX2X0X-X7XwXXX!.$X&X|.Y.%XtX&X-X:X|.^./.s.E.(.#X(..X6Xp.",
"t.+X'.W.}.3X<X%X1X3XQ.Q.%X&X|.Y.+X7X`.^.}.(.~.T.s.E.T.}._.$X1Xu.",
"t..XW. X;X8X<X|.+X{.E.W.|.*X|.T./.+X/.OXqX:XS.U.s.E.T.|.(.<X=Xr.",
"y.oXQ.'.@X3X;X/.XX!.R.R.W.]./.R.T.|.(.OX1X*Xr.c.s.E.R.^.].4X|.w.",
"=.N.R.T.Q._._.Q./.W.R.E.R.T.T.R.R.^.Q./._.W.7.2.d.E.R.Y.&X2X!.q.",
"*.3.z.R.(.(.'.B.G.R.U.k.T.R.R.R.R.R.R.[.Q._.8.4.d.E.R.T.:X.XT.q.",
"% 1.5.V.I.K.F.7.D.T.p.w.R.D.x.E.E.x.D.^.{.h.6.4.d.E.`.OX4X].d.6.",
"@ ).6.w.w.0.9.4.F.I.9.q.Y.S.5.c.W.f.V.U.s.0.Z.4.d.E.[.%X$X!.e.4.",
"BX< h.{.v.6.7.4.Z.u.5.5.p.V.4.5.n.g.7.9.9.q.G.4.s.`.%X[.k.9.6.BX",
"BX+ 6.R.s.V.j.9.8.5.q.5.5.6.4.8.0.5.0.8.F.d.A.5.f.`.%X[.d.5.5.BX",
"BXBX, R Q +Xg.Z.l.8.H.i.7.e.7.B.z.0.G.i.K.J.#.%.$.P.'.Q.p. .&.BX",
"BXBX, Q C '.h.c.T.x.Y.P.x.G.n.Q.V.D.K.r.K.k.$ } , d.P.l.5.* BXBX",
"BXBX$ s : &.k.^ r.V.V.E.W.E.Q.J.M.V.| %.v.Z # a 3 7.s.a.6.* BXBX",
"BXBXBXBXBX6 k o | 6.6.b.V.L.n.d.2.9.> u j BXBX  3 8.4.4.7.* BXBX",
"BXBXBXBXBXBXBX  5 %.2.l 8.j.} ~ r.W .   BXBXBXBX3 8.5.5.0.= BXBX",
"BXBXBXBXBXc M y 2 8 1 O ..N E X 0 7 q g M x BXBX4 0.5.7.V o BXBX",
"BXBXBXBXz J O.,.[ x e & i ; r - d Y -.>.` v x BXBXB 8.9.9 BXBXBX",
"BXBXBXBXL T ' o.U F ( ) ;.:.{ ! T S ] X.I / b BXBXp 9.9.9 BXBXBX",
"BXBXBXG +.@.K m w h A D P P H S n t f S ` <._ M BXp 9.9.9 BXBXBX"
};
