/* XPM */
static char *_337_7614ce4974eb4c96f830607b03ee54d52999a809f528d975d8836d743a7def91[] = {
/* columns rows colors chars-per-pixel */
"32 32 221 2 ",
"   c #B65D00",
".  c #B76503",
"X  c #C07000",
"o  c #CA750D",
"O  c #D77B04",
"+  c #DB7D1D",
"@  c #DE8000",
"#  c #D68B05",
"$  c #DE8D02",
"%  c #D88D0C",
"&  c #DC9302",
"*  c #D29C02",
"=  c #DE9902",
"-  c #D39406",
";  c #DA8B12",
":  c #E38C03",
">  c #EB8E03",
",  c #E58705",
"<  c #E59303",
"1  c #EA9403",
"2  c #E49C03",
"3  c #EB9B03",
"4  c #E6950C",
"5  c #EB950A",
"6  c #E59C0A",
"7  c #EC9C09",
"8  c #F19603",
"9  c #F29C02",
"0  c #F29A0B",
"q  c #E78D12",
"w  c #F58F11",
"e  c #EE9512",
"r  c #EF9719",
"t  c #E79D18",
"y  c #EB9B12",
"u  c #F09717",
"i  c #F19912",
"p  c #DAA701",
"a  c #DFBF00",
"s  c #DDB500",
"d  c #E5A303",
"f  c #ECA302",
"g  c #E6AC01",
"h  c #ECAD01",
"j  c #E7A709",
"k  c #EBA20B",
"l  c #ECAC0C",
"z  c #F2A203",
"x  c #F3AC03",
"c  c #F2A40A",
"v  c #F9A30B",
"b  c #F4AC0B",
"n  c #FBA501",
"m  c #E6B300",
"M  c #ECB401",
"N  c #EDBA02",
"B  c #EDB309",
"V  c #ECBA0B",
"C  c #F3B503",
"Z  c #FBB404",
"A  c #F3BB03",
"S  c #FCBD02",
"D  c #F4B30B",
"F  c #FDB20B",
"G  c #F4BC0B",
"H  c #F8BA0D",
"J  c #EAA513",
"K  c #F3A112",
"L  c #F6AF11",
"P  c #EFB313",
"I  c #F3B313",
"U  c #F3BB13",
"Y  c #F2B81A",
"T  c #CF8628",
"R  c #C68C28",
"E  c #D09A20",
"W  c #DC982B",
"Q  c #E1932E",
"!  c #CCB42C",
"~  c #CCAB38",
"^  c #E6BE2B",
"/  c #EDC201",
"(  c #EEC008",
")  c #ECCF07",
"_  c #F3C304",
"`  c #FBC503",
"'  c #F5CB02",
"]  c #FBCC03",
"[  c #F2C50C",
"{  c #FCC50D",
"}  c #F5CB0A",
"|  c #FCCB0A",
" . c #EED500",
".. c #EEDF06",
"X. c #F4D402",
"o. c #FAD303",
"O. c #F5DC01",
"+. c #FBDB03",
"@. c #F5D30D",
"#. c #FDD20B",
"$. c #F5DC09",
"%. c #FDDC0A",
"&. c #EFC612",
"*. c #F9CB11",
"=. c #EEDE15",
"-. c #FCD214",
";. c #F2D31B",
":. c #F8D815",
">. c #F6E303",
",. c #FBE303",
"<. c #F6EA00",
"1. c #FAEC03",
"2. c #F6E20D",
"3. c #FEE10B",
"4. c #FCEB0B",
"5. c #EEF404",
"6. c #EEFF00",
"7. c #F6F402",
"8. c #FBF303",
"9. c #F5FC00",
"0. c #FBFC03",
"q. c #F7F109",
"w. c #FBF50B",
"e. c #FCFC0C",
"r. c #F4FE0A",
"t. c #FFE617",
"y. c #EEFC1C",
"u. c #FFF215",
"i. c #F5FF11",
"p. c #FEFA16",
"a. c #F6FF1E",
"s. c #F9FB1B",
"d. c #DBC53E",
"f. c #DED232",
"g. c #F7DE29",
"h. c #F9D823",
"j. c #F9D838",
"k. c #F3E32C",
"l. c #EFF62C",
"z. c #F4FB25",
"x. c #FEFC2B",
"c. c #F8F72D",
"v. c #F0EA30",
"b. c #EFF03D",
"n. c #FBF933",
"m. c #F3F93B",
"M. c #FFFF39",
"N. c #F3F836",
"B. c #E0BF4E",
"V. c #EDDA45",
"C. c #F7D840",
"Z. c #F6DD4A",
"A. c #F7DD55",
"S. c #F4EC4D",
"D. c #FAE146",
"F. c #FFFF4A",
"G. c #F7F64E",
"H. c #F7E956",
"J. c #FCFE51",
"K. c #FDFB5B",
"L. c #F4F058",
"P. c #E3D362",
"I. c #F7DC69",
"U. c #E4E563",
"Y. c #FBE96B",
"T. c #F6FF6E",
"R. c #F6F46C",
"E. c #F8E477",
"W. c #F6F87C",
"Q. c #F2ED84",
"!. c #FDF787",
"~. c #FFFC88",
"^. c #FAF688",
"/. c #FBEA94",
"(. c #F4E999",
"). c #FAFA9E",
"_. c #F4D8B1",
"`. c #FEE6AB",
"'. c #FCF7A6",
"]. c #F9F5AE",
"[. c #ECE9B6",
"{. c #F3EDBA",
"}. c #FFEABF",
"|. c #F2E0B2",
" X c #F2F1B0",
".X c #F2EEC9",
"XX c #F5F4CC",
"oX c #F1EFD6",
"OX c #FFEED0",
"+X c #F7E4DC",
"@X c #E8F1DE",
"#X c #F6F0D6",
"$X c #FCF1D5",
"%X c #FFFFD3",
"&X c #F3F1DA",
"*X c #EDEDEB",
"=X c #E9EAE4",
"-X c #F2ECEB",
";X c #F6E8E4",
":X c #EDF1E5",
">X c #E7F1E8",
",X c #EDF2EC",
"<X c #F1F1E6",
"1X c #F3F3EC",
"2X c #FBFFEE",
"3X c #F1FEED",
"4X c #EDEDF3",
"5X c #ECEBFC",
"6X c #F1EDF1",
"7X c #F4EEFE",
"8X c #FEEFFF",
"9X c #EDF1F1",
"0X c #E4F1F9",
"qX c #F4F3F3",
"wX c #FDF4F4",
"eX c #F7FDF3",
"rX c #FBFBF5",
"tX c #F4F3FD",
"yX c #FCF4FE",
"uX c #FDFCFD",
"iX c #F4F8FB",
/* pixels */
"uXqX4XtXuXrX*X9XuXuX<X&X].Y.H.H.L.R.Q..XuXrX*XyXrXqX=XqXuXeX4X-X",
"uXuX*XqXrXqXtXuXyX`.V.=.O.o.o.X.X.,.<.7.z.!.XX5XtXuX1XqXuXyX<XtX",
"9X,XuXuX<X6XyX(.g.' A S L c b M b M G [ X.<.a.T.-XiXrXrX-X1XuXeX",
"4X1XrXeX*XwXE...N z n c k h b B x D P D G G X.7.a.{.uXuX4XqXuXrX",
"rXqX4XtXwXv.X.b x 9 9 f h x x C h H M M A S A [ <.r. XtX2XuX7X*X",
"uXrX-XwXN.X.D n k f c z z v 9 h G h M V B A U N Y $.6. X2XrX7X-X",
"*XrXrXb.>.A f L C c f 3 z 9 d @.1.( l D M m V A A / 2.e.{.7XuXuX",
"1X7XW.8._ L A m x v b v v 3 a i.0.,.C z Z I C Z A N [ <.N.tXrXrX",
"uX%X5.$.A I B N h D x v 2 s p.6.0.w.%.M z L A N G N N } 8.W.5X1X",
"uXR.7.&.[ A A M C b c f p u.8.0.7.r.9.X.M c b C M G A m %.y.1X1X",
"+Xs.$.V _ / N V N h U s ..e.0.w.w.0.9.7.o.C l h b N P A ' 7.).uX",
"(...G S ] / N G A } X.2.u.>.<.1.4.1.4.1.1.%.X.{ A M M S M 3.m.iX",
"H.o.x G N } ' | #.%.,.4.+.3.+.O.3.%.%.+.,.,.,.3.+.-._ h b | p.oX",
"g.] b G * - %.o.$.X.+.] X.o.%.] o.+.+.o.] ] o.O.X.%.d = 6 h <.{.",
"} C K h P . d %.X.] ` | ] ' o.` ' ' ] ' | | ] ] o.A % k k f >.'.",
"| Z z x h i . / ` | } { | | ' ] | | { | ' ' ] | | ; 5 f k j +.W.",
"] x z c x F = . | ' ' | | ] ] | | } ` ] } ` } o.6 5 3 3 k 3 +.Q.",
"} Z 3 3 f x Z o - #.| [ ` ' | ] ` ' ` ] ] | ] A & < u f 7 f O./.",
";.S 9 f b k Z y   U ] | o.] ' ] | o.o.] | ] _ d , 1 5 f 5 f $.'.",
"C.A 9 0 3 3 1 x o = ,.+.%.O.+.:.%.$.+.$.+.+.,.b 1 i < 3 1 x :.XX",
"E.[ 3 9 , < 1 3 O * 0.<.<.8.1.4.<.<.8.q.4.7.7.h 1 1 < 1 5 A k.6X",
"OX) z > e 1 1 i O * e.s.7.w.w.e.e.7.7.r.p.e.s.B 1 3 5 1 4 / E.tX",
"7XV.C : 1 7 , i O E x.m.z.n.n.x.M.n.x.z.c.l.N.P 3 1 3 5 j @.$XuX",
"0X`.| c : < 7 1 , R F.G.J.K.G.f.! d.S.J.K.K.F.Y 6 2 8 i M D.uXeX",
"rX8XA.A 3 > 5 < , R !.U.B.W % - - $ + T ~ P.I.^ 2 f r C ..OX*X9X",
"rXuX;X;.M 1 1 i , o Q # : 1 z f G g g h & O ; 6 2 c k X./.rX*XqX",
"9X:XuX}.X.x e : 5 : 1 1 1 5 i y t d M l m B g h f l +.L.7X<XuXuX",
"<X9X2XuX_.' C 7 1 8 1 8 > > 3 2 9 2 g g m B k k V ,.G.tX>XqXuXuX",
"uXuX5X9XuX}.;.N f 5 q 1 9 1 1 3 0 6 j g j J M o.q.!.-X*XuXiX1X<X",
"uXuX-XqX2XuX+XZ.} M f 4 < & : w < 3 7 6 B  .5.y.).uX>XyXrXeX4X6X",
"qX1XuXuX=X:XuXyX|.D.| S F D f f z x / o.+.t.!.rX7X*XuXeX<X,XuXuX",
"*X4XuXtX*XuXuX3X5XqX$X(.j.-.*.#.} -.j.Y.[.,XuXyX@X6XuXiX5XqXuXrX"
};
