/* XPM */
static char *_09a834aec764bb8ce58444e026ddb5dJES2pmXsEJKI8p5M[] = {
/* columns rows colors chars-per-pixel */
"32 32 211 2 ",
"   c #B15D2E",
".  c #B45F32",
"X  c #B95F3B",
"o  c #B8622F",
"O  c #AE6835",
"+  c #B46232",
"@  c #BA6433",
"#  c #B6623D",
"$  c #B9643D",
"%  c #C85D3B",
"&  c #C66439",
"*  c #C36037",
"=  c #B35E49",
"-  c #A56247",
";  c #BA6542",
":  c #B86749",
">  c #B7794B",
",  c #A7785C",
"<  c #A8745F",
"1  c #BB7C54",
"2  c #BA7C5C",
"3  c #B6775E",
"4  c #AD7864",
"5  c #B77660",
"6  c #B57B65",
"7  c #BD7E61",
"8  c #B67A67",
"9  c #AF7F71",
"0  c #C25D41",
"q  c #C06749",
"w  c #C86F4E",
"e  c #C66E45",
"r  c #C57344",
"t  c #C17C43",
"y  c #CD7D44",
"u  c #C5744D",
"i  c #C8724F",
"p  c #C6794D",
"a  c #CD7C4C",
"s  c #CE7145",
"d  c #D57A4E",
"f  c #D67848",
"g  c #C67153",
"h  c #CD7652",
"j  c #CD7B54",
"k  c #C47C5F",
"l  c #CD7F59",
"z  c #C77656",
"x  c #D17653",
"c  c #D27C54",
"v  c #DD7D53",
"b  c #D47D59",
"n  c #D87C5B",
"m  c #D9755B",
"M  c #E27755",
"N  c #CE7D63",
"B  c #C37F69",
"V  c #D47D61",
"C  c #D07E68",
"Z  c #D97E61",
"A  c #BF8153",
"S  c #BC8364",
"D  c #B2826A",
"F  c #B68269",
"G  c #BC8976",
"H  c #BF937A",
"J  c #C7804C",
"K  c #CD8746",
"L  c #D3814D",
"P  c #D9854D",
"I  c #D98C46",
"U  c #DA9144",
"Y  c #C38351",
"T  c #CC8453",
"R  c #C78852",
"E  c #CC8A53",
"W  c #C4835B",
"Q  c #CC855C",
"!  c #CF8A5D",
"~  c #D48254",
"^  c #D98455",
"/  c #D58B55",
"(  c #DC8A53",
")  c #D4845B",
"_  c #DA845A",
"`  c #D48A5C",
"'  c #DB895D",
"]  c #D8925C",
"[  c #E1835B",
"{  c #E0885A",
"}  c #E19C54",
"|  c #C28363",
" . c #C98765",
".. c #CF8A65",
"X. c #C3826C",
"o. c #CA836C",
"O. c #CD8B6C",
"+. c #D58365",
"@. c #DB8464",
"#. c #D38B62",
"$. c #DD8B63",
"%. c #D0846A",
"&. c #DD8A6B",
"*. c #D68969",
"=. c #DE9165",
"-. c #C78670",
";. c #C98771",
":. c #E28E65",
">. c #E28661",
",. c #F7AD64",
"<. c #EBA766",
"1. c #C79A88",
"2. c #C5A38E",
"3. c #C7AA98",
"4. c #D6AD95",
"5. c #DAAF93",
"6. c #D5AB9B",
"7. c #D9AE9A",
"8. c #D1A69D",
"9. c #DCB196",
"0. c #DDB19D",
"q. c #D6B19E",
"w. c #DBAFA0",
"e. c #D4B3A2",
"r. c #DCB2A4",
"t. c #DDB6AA",
"y. c #DDBCAB",
"u. c #D2B1A8",
"i. c #FFCF89",
"p. c #D9C0AC",
"a. c #CDCBBC",
"s. c #DEC8B6",
"d. c #DCC6BD",
"f. c #D2CEBE",
"g. c #DBCBBD",
"h. c #DBC6B3",
"j. c #DBD5BF",
"k. c #E3C4B6",
"l. c #E5CDBB",
"z. c #BEC8C0",
"x. c #C3CDC5",
"c. c #CACDC5",
"v. c #C7C7C9",
"b. c #C5CDCA",
"n. c #CCCDCC",
"m. c #CDC7CB",
"M. c #D4C7C4",
"N. c #D2CCC2",
"B. c #DDCDC3",
"V. c #D1CDCD",
"C. c #D8CFC8",
"Z. c #CDD0C5",
"A. c #C5D1CA",
"S. c #CCD2CB",
"D. c #C5D1C7",
"F. c #D4D1C4",
"G. c #DBD2C4",
"H. c #D3D2CC",
"J. c #DBD3CC",
"K. c #D8D8CE",
"L. c #D0D8CB",
"P. c #CDCDD2",
"I. c #C4CBD1",
"U. c #D2CED3",
"Y. c #CCD3D2",
"T. c #CFDBD3",
"R. c #CFD2DB",
"E. c #D2D3D3",
"W. c #DCD4D3",
"Q. c #D5D9D4",
"!. c #DADCD6",
"~. c #D2D6DC",
"^. c #D9D2DB",
"/. c #D4DBDA",
"(. c #DADBDC",
"). c #E0CEC3",
"_. c #E4D4C4",
"`. c #E4D6CB",
"'. c #ECD4CC",
"]. c #E3DACE",
"[. c #E5DAC8",
"{. c #E4D5DB",
"}. c #E2DBDA",
"|. c #E4DBD1",
" X c #F2DED7",
".X c #D9E1DD",
"XX c #DAE0D6",
"oX c #E2E3DF",
"OX c #DBDBE1",
"+X c #E2DCE4",
"@X c #DFE4E0",
"#X c #E0E1E3",
"$X c #EAE3E5",
"%X c #E3EAE6",
"&X c #EAEAE7",
"*X c #E5E7EA",
"=X c #EDE5EC",
"-X c #E4ECE9",
";X c #EBEBEC",
":X c #F1E5EE",
">X c #F2E6E8",
",X c #F2EBED",
"<X c #F3E8E8",
"1X c #EDF2EC",
"2X c #EFE5F0",
"3X c #EEE9F0",
"4X c #ECEDF1",
"5X c #F2E7F0",
"6X c #F4E7F4",
"7X c #F1EBF2",
"8X c #F4EBF3",
/* pixels */
"-X%X&X;X<X>X=X8X6X2X6X2X+X(.Q.XX/.(.OX3X=X:X:X<X<X>X<X<X&X%X-X-X",
"-X-X&X&X&X,X,X=X3X+X^.P.m.U.S.z.A.b.v.P.U.+X+X$X<X<X&X&X&X1X;X-X",
"-X;X;X;X-X;X*X(.P.n.Y.Q.n.c.S.L.S.S.S.Q.n.Y.S.S.#X%X-X-X=X;X4X3X",
",X=X;X;X;X.XY.Y.Y.b.c.K.H.a.a.f.f.f.c.W.c.x.b.Q.Y.XX%X-X;X;X=X7X",
"5X2X4X;X@XA.A.D.Z.Z.F.].[.s.k.p.k.l.).[.G.J.c.x.z.A./.@X4X3X:X5X",
"=X8X*XOXY.A.S.Z.f._.h.e.1.G G < D H 1.2.3.g.J.c.T.A.z./.*X7X5X:X",
"5X2X@XY.A.Z.F.g.l.r.D 6 S o.o.=  .%.o.5 4 1.y.).K.S.n.P.(.;X7X:X",
"8X#XQ.T.T.Z.g.k.1.F - k &.Z m 0 n n @.l : 3 1.t.B.|.!.n.P.}.,X;X",
"4X/.Y.x.Z.oXk.1.X.k q i [ v M % v [ [ x ; N o.G t.'.M.V.m.E.&X&X",
";XQ.Y.S.c.B.4.5 %.V ; d { ^ M & d ( [ d % ) %.X.9 u.B.V.V.E..X1X",
"oXS.S.T.!.'.r.-.+.@.+ L / ~ ~ + a / / d . ~ +.O.4 e. XJ.W.S.Q.&X",
"}.c.D.D.H.).w.B @.~ + y / E R + Y E E a @ ~ ` O.8 e.'.M.H.H.S.%X",
"}.V.A.z.D.G.w.B +.x r t E R Y > W A R J & L `  .D t.d.M.V.n.E.#X",
"{.V.Y.A.S.`.t.B &._ ' T / / ) ) ..! =.( ^ ^ $.O.D y.B.|.V.P.P.(.",
"{.m.Y.b.b.N.8.8 z w e r p u g e g g b s & s j 1 , 3.).V.P.U.P.(.",
"{.m.b.Y.S.J.w.B %.n $ x ` $.n = V >.>.s * ^ /  .A 2.`.m.m.U.P.OX",
"!.n.E.E.Q.].r.| ) ) ; x _ _ b $ V _ ^ f @ P I K > 5.j.K.!.^.U.OX",
"(.m.V.E.P.`.0.| ! ) $ x _ ^ ~ $ h b ( P @ y U } A 9.j.D.U.U.P.OX",
"(.m.V.n.n.J.0. .! ) $ x _ ^ b # ) ^ P y   P ,.i.A 5.G.S.U.U.P.OX",
"(.n.H.n.P.H.q. .Q ) # x [ ^ ) X b ) P P $ ~ } <.1 4.G.L.U.U.P.(.",
"/.v.V.n.n.J.6.| ` ) $ j _ _ ) ; j ) ( ~ $ ) K t 2 4.F.b.m.P.m.(.",
"/.n.U.E.Y.H.6.W ..) ; j _ _ ) ; l ` ^ y + ) ] ] 2 6.J.S.P.U.S.!.",
"OXP.E.E.R.W.q.|  .) ; z ) ) b ; l ` ^ c $ l / ! 3 6.W.~.Q.E.n.Q.",
"/.n.P.S.Y.J.r.7 Q Q ; j ~ ~ j # l j c ~ ; j l W 7 q.W.P.U.n.S.XX",
"OXY.P.n.b.H.r.| O.Q $.b :.~ ' ` ` ` $.~ $.@.#.#.S r.W.I.v.V.H.XX",
"R.b.n.E.Y.W.6.7 Q p g i _ j j u g j a r e j z k 5 w.^.P.Y.H.c.Q.",
"/.n.P.n.b.J.6.A Q p ; g ~ c c ; j ) j c # ) l  .7 6.V.P.n.c.Z.!.",
"(.Y.V.n.P.J.q.X...) X j @.^ ~ ; ~ ) ~ ) . ) ` %.7 6.V.R.V.S.n.XX",
"Q.n.U.E.Y.J.7.| ` ` X b ^ ) ) # j ~ ) ~   ~ ` ..2 4.W.~.W.H.c.!.",
"^.V.H.V.Y.|.0.| Q ) # b _ v ~ # j ~ ' ^ + ~ ` Q k 7.W.R.E.H.n.(.",
"(.n.V.c.v.G.0. .) / q x ^ ^ ^ $ j ~ ~ v @ L ) ` W 9.W.I.V.V.H.(.",
"Q.n.V.V.Y.J.5.B Q L q i _ v ~ $ j ^ c ~ @ ~ ~ ` 1 5.W.P.M.H.V.(."
};
