/* XPM */
static char *result[] = {
/* columns rows colors chars-per-pixel */
"32 32 181 2 ",
"   c black",
".  c #03040E",
"X  c #0C0B0D",
"o  c #1A0C03",
"O  c #1F130E",
"+  c #121415",
"@  c #1B1C1D",
"#  c #191513",
"$  c #22130A",
"%  c #28170B",
"&  c #2A1A13",
"*  c #2D1D19",
"=  c #261C18",
"-  c #352117",
";  c #3A2319",
":  c #0B1321",
">  c #142234",
",  c #252525",
"<  c #25242B",
"1  c #2A2A2D",
"2  c #322924",
"3  c #2A2834",
"4  c #312F35",
"5  c #37373E",
"6  c #552A13",
"7  c #713714",
"8  c #4D3226",
"9  c #493A32",
"0  c #563624",
"q  c #56453E",
"w  c #6F442A",
"e  c #7E4D32",
"r  c #704730",
"t  c #3A3A45",
"y  c #363941",
"u  c #172960",
"i  c #1B3875",
"p  c #3F5F7C",
"a  c #444545",
"s  c #43424D",
"d  c #4A4646",
"f  c #4A4855",
"g  c #4E4D5A",
"h  c #514F5D",
"j  c #555555",
"k  c #5C5C5D",
"l  c #53515F",
"z  c #7D5741",
"x  c #67574D",
"c  c #595766",
"v  c #5A5866",
"b  c #615F70",
"n  c #6A6A6A",
"m  c #606062",
"M  c #686775",
"N  c #757575",
"B  c #7C7C7C",
"V  c #884319",
"C  c #92491E",
"Z  c #98542C",
"A  c #89583F",
"S  c #935E3F",
"D  c #9B613F",
"F  c #9B6545",
"G  c #956A56",
"H  c #9B7358",
"J  c #A66B47",
"K  c #B6714B",
"L  c #8D7262",
"P  c #997F6A",
"I  c #897F7A",
"U  c #C77F52",
"Y  c #CA7953",
"T  c #AF8E7A",
"R  c #B78E76",
"E  c #BB947B",
"W  c #D3835F",
"Q  c #DC906A",
"!  c #DF9471",
"~  c #C98669",
"^  c #E5926A",
"/  c #EB9E7B",
"(  c #E79774",
")  c #4433A6",
"_  c #513EBB",
"`  c #2E4883",
"'  c #1459BB",
"]  c #7A7694",
"[  c #4173BC",
"{  c #1061CB",
"}  c #0F66D4",
"|  c #1375E7",
" . c #7556DA",
".. c #798CA5",
"X. c #3596FE",
"o. c #3A97FC",
"O. c #7FB6ED",
"+. c #63AEFF",
"@. c #858585",
"#. c #8C8B86",
"$. c #8C8C8C",
"%. c #898787",
"&. c #938B84",
"*. c #9A8B85",
"=. c #9A938B",
"-. c #94928B",
";. c #949494",
":. c #9B9692",
">. c #9A9B9B",
",. c #9A9A97",
"<. c #AD9A8E",
"1. c #A49389",
"2. c #B89B91",
"3. c #B59B8B",
"4. c #9FA09F",
"5. c #A2A09D",
"6. c #AAA19C",
"7. c #B4A099",
"8. c #9D9FA0",
"9. c #9FA0A0",
"0. c #A4A4A4",
"q. c #ABABAB",
"w. c #B8AAA1",
"e. c #B7B2AF",
"r. c #AFAFB0",
"t. c #B4B5B5",
"y. c #B6B7B8",
"u. c #BBBBBB",
"i. c #B8B5B3",
"p. c #C39E87",
"a. c #DD958A",
"s. c #CF8990",
"d. c #CFA086",
"f. c #DDA588",
"g. c #EDA281",
"h. c #E9AC8D",
"j. c #EBAD86",
"k. c #F0B08A",
"l. c #F7BA96",
"z. c #FAB996",
"x. c #F6B997",
"c. c #C2AFA4",
"v. c #C6BAA6",
"b. c #D7B7A6",
"n. c #F5BCA0",
"m. c #FAC29D",
"M. c #F7C09D",
"N. c #D4C1B5",
"B. c #DAD2BF",
"V. c #C8C3B8",
"C. c #F9C5A5",
"Z. c #FACAAB",
"A. c #FAC5A8",
"S. c #F9CFB4",
"D. c #FCD6BE",
"F. c #FAD1B7",
"G. c #948BD7",
"H. c #8EB7DA",
"J. c #BDBDC7",
"K. c #82BEFF",
"L. c #B1C2CE",
"P. c #BDC6DA",
"I. c #91C9FF",
"U. c #A6D2FF",
"Y. c #BBDDFF",
"T. c #C3C3C4",
"R. c #CDCDCD",
"E. c #DBD6CE",
"W. c #D3D3D3",
"Q. c #DBDBDB",
"!. c #FBD9C4",
"~. c #FBDDCA",
"^. c #F8D7C2",
"/. c #E8E2D3",
"(. c #DBEAFC",
"). c #E4E4E4",
"_. c #ECECEC",
"`. c #F1E6E1",
"'. c #F4F4F4",
"]. c #FEFEFE",
"[. c None",
/* pixels */
"[.[.[.[.[.[.$.$.$.[.[.[.[.[.[.[.[.[.[.[.[.[.[.[.[.[.[.[.[.[.[.[.",
"[.[.[.[.[.0.R.W.R.0.[.[.[.[.[.[.[.[.[.[.[.[.[.[.[.[.[.[.[.[.[.[.",
"[.[.[.[.T.W.W.R.u.q.;.[.[.[.[.[.[.[.[.[.[.[.[.[.[.[.[.[.[.[.[.[.",
"[.[.[.u.W.R.W.u.0.;.@.q.u.T.u.u.u.;.,.;.;.,.;.[.[.[.[.[.[.[.[.[.",
"[.[.[.R.).W.u.0.T.u.>.t.R.W.Q.W.R.T.W.W.Q.W.u.>.;.[.[.[.[.[.[.[.",
"[.[.T._.'.T.>.t.R.q.T.W.W.).).).W.Q.Q.).).).W.W.t.>.;.[.[.[.[.[.",
"[.[.u.).).0.$.q.R.).).Q._._._.Q.Q.].'.W._._.).W.Q.Q.u.$.[.[.[.[.",
"[.t.u.W.W.q.q.Q.'.'.Q.Q.'.'.].W._.].]._.].'.'.)._._.).u.;.[.[.[.",
"[.u.T.T.T.q.T.].].]._._.].].].)._.].].].].].]._.).'.'.Q.,.[.[.[.",
"[.u.R.u.R.u.).].].]._.'.].].'.Q.).]._._.].].].'.).'.].'.t.$.[.[.",
"[.u.R.T.u.W.].].]._.)._.]._.).W.).].Q.W.'.].].'.Q.Q.'.'.T.$.[.[.",
"u.R.W.Q.y.q.'._._.Q.Q.)._.).Q.T.W._.).W._._._._.Q.Q.).).q.%.[.[.",
",.R.).).0.R._.)._.R.W._.).).W.u.W.).R.T.Q.R.).).Q.W.Q.Q.t.q.@ [.",
"$.W._.Q.,.W.Q.).Q.T.T.).).W.R.u.W.W.R.u.u.T._.).Q.W.W.W.u.t.@ [.",
"$.R._.).,.R.W.).Q.u.T.Q.Q.W.u.t.R.R.R.q.,.y.R.Q.R.R.R.W.,.q.@ [.",
"$.W._.Q.;.q.q.W.R.T.R.T.R.R.;.t.u.R.R.q.$.>.T.W.W.T.T.W.,.q., [.",
"$.R.T.>.t.0.0.W.T.e.i.t.R.y.#.e.t.R.q.6.!.c.:.T.R.J.R.W.;.q.>.+ ",
"$.R.R.r.-.9.9.T.t.R 3.t.t.=.%.q.;.q.:.^.Z.Y H 0.i.i.T.R.;.0.2 [.",
"$.R.v.c.F -.>.u.>.p.T 5.&.~ ..0.$.q.<.l.( ! j.E :.t.R.T.-.@.Z [.",
"$.T.L.w.G b.;.y.>.G V x w C T 0.@.<.x.l.Y V 7 7 A ;.J.u.$.@.w [.",
"$.t.u.;.9 b.,.t.>.H q : . 6 L 1.<.M.C.j.Z 8 > . 8 T 9.t.;.*.# [.",
"$.y.y.>.q G 9.9.=.V.O.p i y K x.m.M.m.k.D p [ u ..v.-.0.;.G $ [.",
"%.0.y.u.>.a B 0.=./.+.' | L.g.A.m.m.m.n.j.H.} { I.V.&.q.n + [.[.",
"@.$.y.y.u.N a i.,.E.+.X.X.(.x.^.F.S.F.S.A.Y.X.X.U.V.5.t.1 [.[.[.",
"[.$.y.y.u.N a u.r.y.J.J.R._.D.!.~.~.~.!.!.).P.J.u.t.q.u.1 [.[.[.",
"[.$.t.u.u.N 5 n n 2.h.m.Z.!.~.~.!.x.~.~.~.D.C.m.f.7.k B a [.[.[.",
"[.$.t.>.V.N X , @ A / x.C.Z.Z.Z.Z.x.Z.Z.Z.A.M.l.^ r + 1 [.[.[.[.",
"[.$.q.%.,.m   [.[.% ; J / z.m.m.C.x.m.m.m.z.Q e - $ [.[.[.[.[.[.",
"[.[.-.@.%.j   [.[.[.[.% - J U / g.g.g.( U S & o [.[.[.[.[.[.[.[.",
"[.[.@.@.%.j   [.[.s s y 5 = O * * * * & O = 5 t s s [.[.[.[.[.[.",
"[.[.[.@.%.j X < s c f s g g t < _ G.) < t c M ] M f a [.[.[.[.[.",
"[.[.[.@.%.v 3 f c g g c f s 4 d.s. .a.R 3 s g b h l g [.[.[.[.[."
};
