/* XPM */
static char *result[] = {
/* columns rows colors chars-per-pixel */
"32 32 151 2 ",
"   c #020202",
".  c gray4",
"X  c #1B0F07",
"o  c #131313",
"O  c #171818",
"+  c #1A1A1B",
"@  c #21130B",
"#  c #2B1B15",
"$  c #2D1D18",
"%  c #37251E",
"&  c #0B1B2F",
"*  c #232229",
"=  c #2D2D2D",
"-  c #2F3132",
";  c #32323C",
":  c #4F301E",
">  c #51311E",
",  c #6F3614",
"<  c #5C3222",
"1  c #594139",
"2  c #7D492D",
"3  c #6D4A3D",
"4  c #704734",
"5  c #704D39",
"6  c #794D35",
"7  c #373741",
"8  c #373843",
"9  c #3C3B46",
"0  c #2F265D",
"q  c #444444",
"w  c #47464C",
"e  c #4A4956",
"r  c #4E5152",
"t  c #545555",
"y  c #5A5A5A",
"u  c #6A5244",
"i  c #7E5341",
"p  c #595766",
"a  c #656565",
"s  c #6F6F6F",
"d  c #843F16",
"f  c #864018",
"g  c #A45628",
"h  c #A65C31",
"j  c #9F673F",
"k  c #AA6439",
"l  c #925E40",
"z  c #895957",
"x  c #9A725A",
"c  c #AE6841",
"v  c #B66E43",
"b  c #AC744C",
"n  c #B07951",
"m  c #917767",
"M  c #9E7D69",
"N  c #866C7C",
"B  c #867E7B",
"V  c #AE7E69",
"C  c #C4764B",
"Z  c #C17445",
"A  c #C67E51",
"S  c #CF7E58",
"D  c #86817D",
"F  c #A08474",
"G  c #B78F7B",
"H  c #C78156",
"J  c #C5865F",
"K  c #DE926B",
"L  c #D39974",
"P  c #D2937B",
"I  c #E59D76",
"U  c #E99778",
"Y  c #EC9C7B",
"T  c #E79473",
"R  c #3E2CAC",
"E  c #2F60A6",
"W  c #72438E",
"Q  c #4632CE",
"!  c #4D38F4",
"~  c #025BC7",
"^  c #AC729C",
"/  c #2E94FF",
"(  c #858585",
")  c #8D8987",
"_  c #858788",
"`  c #8B8B8B",
"'  c #8A8785",
"]  c #958985",
"[  c #998C87",
"{  c #9C928C",
"}  c #949494",
"|  c #959798",
" . c #9C9C9C",
".. c #9D9896",
"X. c #AD9185",
"o. c #A79D97",
"O. c #B39A90",
"+. c #A6A29E",
"@. c #BBA395",
"#. c #9BA1BD",
"$. c #A4A3A3",
"%. c #AAAAAA",
"&. c #A7A7A7",
"*. c #BDB8A2",
"=. c #AFB0B0",
"-. c #B3B3B3",
";. c #BBBBBB",
":. c #C59481",
">. c #DFA784",
",. c #DCA48C",
"<. c #CEAB95",
"1. c #C6A894",
"2. c #D3AE95",
"3. c #DBB297",
"4. c #EEA281",
"5. c #E9AB84",
"6. c #E9AE88",
"7. c #E6AB85",
"8. c #F3A986",
"9. c #FAB48F",
"0. c #F5B591",
"q. c #F9B796",
"w. c #FBB897",
"e. c #FAC29E",
"r. c #D0CCBA",
"t. c #FAC5A2",
"y. c #FCCCAD",
"u. c #EFCCB5",
"i. c #FCCDB0",
"p. c #E7D2BC",
"a. c #FDD5BA",
"s. c #FDD8BF",
"d. c #FCD0B3",
"f. c #9DC0DE",
"g. c #9FCEFF",
"h. c #BACAE3",
"j. c #B0D7FF",
"k. c #C4C4C4",
"l. c #CBCBCB",
"z. c #DECDC9",
"x. c #D3D3D3",
"c. c gainsboro",
"v. c #FCDECA",
"b. c #FFDBC3",
"n. c #E3D7D6",
"m. c #FCE0CE",
"M. c #E4E4E4",
"N. c #EBEBEB",
"B. c #F4F4F4",
"V. c #FEFEFE",
"C. c None",
/* pixels */
"C.C.C.C.C.C.` ` ' C.C.C.C.C.C.C.C.C.C.C.C.C.C.C.C.C.C.C.C.C.C.C.",
"C.C.C.C.C.&.x.k.$.C.C.C.C.C.C.C.C.C.C.C.C.C.C.C.C.C.C.C.C.C.C.C.",
"C.C.C.C.&.c.M.x.k. .C.C.C.C.C.C.C.C.C.C.C.C.C.C.C.C.C.C.C.C.C.C.",
"C.C.C.| c.B.B.c.k.| ` | | } ( } } } | | | | C.C.C.C.C.C.C.C.C.C.",
"C.C.C.-.B.V.B.c.k.| $.k.x.k.| ;.;.l.c.c.x.k. .=.l.;.C.C.C.C.C.C.",
"C.C.| N.V.V.B.c.l. .-.x.x.M.l.x.;.c.c.c.M.M.M.M.M.c.k.;.C.C.C.C.",
"C.C.&.N.V.V.B.c.l. .k.B.k.c.x.-.&.n.x.c.c.N.N.c.N.V.M.k.;.C.C.C.",
"C.` k.N.V.V.B.x.;.| %.k.&.x.-.%.M.M.N.N.N.V.B.B.B.V.B.x.k.;.C.C.",
"C.` k.M.B.B.B.l.&. .;.c.=.k.} l.V.N.B.c.V.V.V.V.V.V.N.c.x.;.C.C.",
"C.` ;.c.B.B.M.x.$. .M.M.&.$.&.M.V.B.M.M.V.V.V.B.N.B.B.c.M.c.;.C.",
"C.` ;.x.M.M.x.;.$.%.l.&. .` -.M.B.M.k.c.B.V.B.M.c.B.B.x.B.N.&.C.",
"` ;.;.x.M.x.l.$.` } } $.k.} =.M.M.c.;.x.N.N.M.c.c.N.c.k.N.M.} C.",
"` l.;.x.M.x.k. .| %.%.l.k.} =.x.M.x.;.x.M.x.x.x.k.M.c.;.N.N.k.` ",
"` l.l.k.c.l.&. .;.r.k.x.;.} =.l.x.l.;.c.M.x.;.;.k.x.x.;.B.N.l.` ",
"} c.l.;.x.l.$. .k.k.k.k.| &.l.x.c.x.;.x.c.;.$. .k.x.l.;.c.x.l.` ",
"} c.l.;.l.-. . .k.k.k.;.} k.x.M.B.c.;.x.l.&.`  .k.x.k.;.l.x.;.` ",
"` x.c.;.l.$.| ;.;.;.-. .;.l.l.M.V.M.;.l.$.O.u.@. .k.;.-.;.l.;.` ",
"` l.c.k.k.$.| -.k. .$.-.-.=.;.x.M.l.-.&.F v k h m &.| %.;.k.-.' ",
"` ;.M.l.;.&.( $.$.( B o.{ ' -.l.M.l.%.X.Y 6.7.I V ..} &.-.-.` C.",
"' ;.l.c.-.%.` ( ( _ l M ,.[ -.l.c.-.{ 0.S g f , d x ` &.} $.` C.",
"` &.k.c.;.;.$.` _ _ 5 P b.O.$.l.c.-.{ 5.k j u & < I 1.$.` ( C.C.",
"( ` ;.c.x.l. . . .} - x i.8.] -.c.=.{ 7.n *.f.E z 9.e.G D _ C.C.",
"( ( $.-.l.l.=.+.} &.a > J Y ] -.l.-.{ 7.b r.g.~ N w.d.H m C.C.C.",
"C.( ( } ;.x.l.&.s $. .t : 4 B -.l.=.{ 0.L p.j./ #.y.m.>.Z C.C.C.",
"C.( ( } k.l.k.$.( | ` ' t 3 B -.%.-.+.@.<.y.n.h.z.s.v.y.A C.C.C.",
"C.C.q ` $.;.%.a a t a ` ` X.' -._ | } ) 2.e.t.s.m.v.a.w.C C.C.C.",
"C.C.+ ( | =.| q o o y w s ( G ..<.2.2.3.e.e.e.t.y.y.0.i 2 C.C.C.",
"C.C.+ ( ` ` ' q     + . a :.U P 4.8.e.e.e.e.w.t.9.K 4 C.C.C.C.C.",
"C.C.+ ( ( ( ' q C.C.C.  O % c C T U 4.4.4.4.K A 6 # X C.C.C.C.C.",
"C.C.+ ( ( ( ` q C.C.C.C.C.C.@ @ # $ # $ # $ # @ X C.C.C.C.C.C.C.",
"C.C.C.- ( ( ( q C.C.C.C.C.* 7 7 e e 7 ; + 0 Q R C.C.C.C.C.C.C.C.",
"C.C.C.+ ' ` t   C.C.C.C.C.* 9 p p p w 7 1 ^ ! W C.C.C.C.C.C.C.C."
};
