/* XPM */
static char *result[] = {
/* columns rows colors chars-per-pixel */
"32 32 158 2 ",
"   c #020202",
".  c #0B0B0C",
"X  c #1E1008",
"o  c #141414",
"O  c #17181E",
"+  c #1C1C1C",
"@  c #271407",
"#  c #321B0E",
"$  c #261F1C",
"%  c #3A200E",
"&  c #2A211C",
"*  c #3A2010",
"=  c #3A291F",
"-  c #171729",
";  c #222222",
":  c #27262E",
">  c #2A2A2B",
",  c #3F2820",
"<  c #2C2D35",
"1  c #343333",
"2  c #32333C",
"3  c gray24",
"4  c #421F0A",
"5  c #4A2C1E",
"6  c #4A2E20",
"7  c #4E3126",
"8  c #413835",
"9  c #3B3B46",
"0  c #533A46",
"q  c gray26",
"w  c #46464B",
"e  c #554741",
"r  c #4B4A56",
"t  c #5B495F",
"y  c #525252",
"u  c #5D5C5C",
"i  c #626262",
"p  c #6C6C6C",
"a  c #6A687D",
"s  c #747575",
"d  c #7B7A7A",
"f  c #82421C",
"g  c #92461A",
"h  c #9E5324",
"j  c #8C573E",
"k  c #9C5B37",
"l  c #A75F38",
"z  c #A5623F",
"x  c #8F644B",
"c  c #98745F",
"v  c #A26A4D",
"b  c #B56D44",
"n  c #BD774B",
"m  c #B5734A",
"M  c #B77853",
"N  c #8E7261",
"B  c #917869",
"V  c #867F7B",
"C  c #AA7F6E",
"Z  c #B77D64",
"A  c #AE7572",
"S  c #C77B51",
"D  c #85817E",
"F  c #B78161",
"G  c #B48C7D",
"H  c #BC8E7D",
"J  c #AC977B",
"K  c #BE907E",
"L  c #CA8459",
"P  c #CB8156",
"I  c #D38055",
"U  c #CF8F67",
"Y  c #C48C6A",
"T  c #D48D66",
"R  c #D3936C",
"E  c #D99267",
"W  c #C58F7A",
"Q  c #DE9E77",
"!  c #D4957D",
"~  c #E38E68",
"^  c #E99A79",
"/  c #F19A7A",
"(  c #D8A07D",
")  c #EBA37C",
"_  c #34269E",
"`  c #3628A5",
"'  c #6D6A81",
"]  c #706D85",
"[  c #4777B1",
"{  c #196ED3",
"}  c #6745C3",
"|  c #5D44E9",
" . c #1E87FA",
".. c #608ACB",
"X. c #858585",
"o. c #878888",
"O. c #8C8C8C",
"+. c #968984",
"@. c #949494",
"#. c #959798",
"$. c #9C9C9C",
"%. c #A3948C",
"&. c #B49D8F",
"*. c #A89790",
"=. c #B69F91",
"-. c #A7A199",
";. c #B8AC94",
":. c #9F9FA0",
">. c #9DA0A0",
",. c #A4A4A4",
"<. c #A6A7A8",
"1. c #ACACAC",
"2. c #B6ADA7",
"3. c #BCB0A8",
"4. c #B4B4B4",
"5. c #BCBCBC",
"6. c #C59A81",
"7. c #D79F86",
"8. c #CBAA94",
"9. c #C4B198",
"0. c #DEB295",
"q. c #EFA580",
"w. c #F3A885",
"e. c #F7AD8A",
"r. c #F5B28E",
"t. c #E0B395",
"y. c #E6B89C",
"u. c #F7B697",
"i. c #F3BD9C",
"p. c #FCBE9A",
"a. c #D8B8A7",
"s. c #FAC39E",
"d. c #F6C09E",
"f. c #F6C3A2",
"g. c #FBC4A3",
"h. c #FFC8A9",
"j. c #FCC8A6",
"k. c #E8C4BF",
"l. c #FCCFB2",
"z. c #F5C8B0",
"x. c #FBD4BB",
"c. c #B1BFD8",
"v. c #90BDF1",
"b. c #C3C3C3",
"n. c #CCCCCC",
"m. c #D3D3D3",
"M. c #DBDBDB",
"N. c #E6C7CB",
"B. c #FBDDCA",
"V. c #FBDAC4",
"C. c #FDE0CD",
"Z. c #D5E6F8",
"A. c #E4E4E4",
"S. c #EBEBEB",
"D. c #ECE6E6",
"F. c #F3F3F3",
"G. c #FDFDFD",
"H. c None",
/* pixels */
"H.H.H.H.H.H.H.H.H.H.H.H.H.H.H.H.H.H.H.H.H.H.O.O.@.O.H.H.H.H.H.H.",
"H.H.H.H.H.H.H.H.H.H.H.H.H.H.H.H.H.H.H.H.H.@.n.n.m.4.O.H.H.H.H.H.",
"H.H.H.H.H.H.H.H.H.H.H.H.H.H.H.H.H.H.H.H.o.4.5.n.n.m.4.O.H.H.H.H.",
"H.H.H.H.H.H.H.H.H.H.$.-.>.$.@.#.O.O.$.$.$.,.<.1.n.m.m.<.H.H.H.H.",
"H.H.H.H.H.H.b.n.4.1.m.M.M.M.n.b.1.5.M.M.m.<.$.O.1.m.S.n.$.H.H.H.",
"H.H.H.H.5.n.S.A.A.S.A.M.M.M.b.5.n.M.D.M.M.m.n.o.$.1.D.F.<.H.H.H.",
"H.H.H.5.n.F.G.M.S.A.S.m.A.M.m.<.5.A.F.M.M.S.M.b.O.@.m.A.4.O.H.H.",
"H.H.5.n.M.F.G.G.G.G.G.F.A.S.S.M.,.5.F.S.m.F.m.M.<.$.n.m.b.@.H.H.",
"H.H.5.M.D.F.G.G.G.G.G.G.M.G.G.S.,.1.F.G.A.M.n.5.5.$.4.b.b.@.H.H.",
"H.5.A.S.M.F.F.M.F.G.G.G.M.A.G.G.m.@.b.G.S.F.F.n.m.1.$.4.n.$.H.H.",
"H.$.S.S.m.F.F.m.M.G.G.A.n.b.S.S.n.@.5.A.A.M.G.F.A.m.$.4.m.$.H.H.",
"H.,.S.S.5.M.A.m.A.A.A.A.n.b.A.A.n.#.4.A.A.n.A.M.n.b.$.4.M.n.@.H.",
"O.m.F.A.5.M.m.c.m.5.A.A.n.5.m.M.b.@.1.M.A.5.5.5.5.5.5.#.b.M.@.H.",
"@.n.A.A.b.m.m.5.1.4.m.A.n.5.m.m.b.,.-.b.n.5.m.A.m.n.5.#.b.m.@.H.",
"O.b.m.n.5.n.m.b.O.$.5.M.n.5.A.A.m.b.@.1.n.5.m.A.m.n.b.#.b.m.@.H.",
"O.5.n.b.4.b.n.1.3.3.,.b.n.b.F.F.M.m.4.>.4.c.b.b.a.4.4.$.<.n.@.H.",
"O.5.n.4.1.1.1.N F Y c $.b.5.A.S.n.b.b.<.4.*.b.4.b.4.5.#.$.n.@.H.",
"H.$.5.5.>.$.$.Z U R ^ 6.$.b.m.M.b.>.#.4.$.o.<.c.2.4.,.$.1.n.@.H.",
"H.@.1.,.,.O.c l b m L ^ 8.$.m.M.b.@.G %.x V o.@.O.@.o.O.,.n.@.H.",
"H.H.O.@.>.=.M 4 X f h S t.O.n.M.b.@.a.y.k V o.X.@.4.u s 5.n.@.H.",
"H.H.o.X.=.d.) 0 [ -.J n t.@.n.m.>.H z.i., d O.,.@.<.q p 5.4.O.H.",
"H.H.H.B U j.e.t { Z.;.n t.O.b.b.#.W r.m ; >.@.4.1.y y 4.5.4.@.H.",
"H.H.H.H.( C.u... .Z.9.L t.@.b.n.$.F v = s 1.@.5.$.q i 5.4.@.X.H.",
"H.H.H.L l.B.l.c.v.D.f.0.8.$.5.5.>.e $ p o.<.O.$.q 1 ,.4.5.@.o.H.",
"H.H.H.P h.V.B.B.x.g.i.%.O.<.#.$.>.G +.o.X.i X.w   1 #.4.4.@.i H.",
"H.H.H.k Z h.x.x.g.s.s.i.&.&.&.-.*.D o.u d o q H.H.1 o.,.1.O.+ H.",
"H.H.H.H.6 v ) p.s.s.s.s.s.p.e.7.! ! +.; 1   H.H.H.1 O.@.O.y o H.",
"H.H.H.H.H.@ 6 M E w.e.e.e.w./ ~ I j 8 .   H.H.H.H.1 o.X.O.; H.H.",
"H.H.H.H.H.H.H.# # 5 7 7 7 7 7 5 * @ H.H.H.H.H.H.; p X.X.o.; H.H.",
"H.H.H.H.H.H.H.H._ ` - + < 2 9 9 < : H.H.H.H.H.H.> o.X.X.o.; H.H.",
"H.H.H.H.H.H.H.h } | A 1 9 r a a r 2 H.H.H.H.H.H.> o.X.o.3 H.H.H.",
"H.H.H.H.H.H.g R N.N.p.6.: : 9 ] ' 2 H.H.H.H.H.H.> o.o.O.> H.H.H."
};
