/* XPM */
static char *_646343095729[] = {
/* columns rows colors chars-per-pixel */
"32 32 57 1 ",
"  c #61574E",
". c #605750",
"X c #645B54",
"o c #685B55",
"O c #685F58",
"+ c #6C635B",
"@ c #716761",
"# c #736A62",
"$ c #7B6E66",
"% c #796F6A",
"& c #7E746C",
"* c #81746C",
"= c #817770",
"- c #857B73",
"; c #887B72",
": c #8A7F79",
"> c #8C8077",
", c #8D827B",
"< c #91867E",
"1 c #92887F",
"2 c #918780",
"3 c #958B84",
"4 c #988D86",
"5 c #968D88",
"6 c #998F88",
"7 c #9A9087",
"8 c #9D928B",
"9 c #9F9590",
"0 c #A1958E",
"q c #A2988F",
"w c #A19690",
"e c #A59A93",
"r c #A99E96",
"t c #AA9F98",
"y c #ABA097",
"u c #ADA29B",
"i c #B1A59D",
"p c #B2A89F",
"a c #B1A7A0",
"s c #B5AAA3",
"d c #BAADA5",
"f c #B9AEA8",
"g c #BAB0A7",
"h c #BDB2AA",
"j c #C1B5AC",
"k c #C3B8AF",
"l c #C1B7B1",
"z c #C6BBB3",
"x c #C9BDB5",
"c c #C8BFB8",
"v c #CDC3BB",
"b c #D1C4BC",
"n c #D1C6C0",
"m c #D5CAC3",
"M c #D8CEC5",
"N c #DDD3CA",
"B c #E3D6CE",
/* pixels */
"=eqeee87;+25,2,25&7y53:ww<o<<234",
"saughgfh33f8wreuaffetawazxwluisf",
"eeete99e=id3weee8899ee950r5firtr",
"sspy999e:tf3662955e9669e6r5fdy0y",
"yye89e9y:if6w3402eh978594e6uidpu",
"hp9gpypi@0x60ttryyauuyetrd,fdjji",
"9&897371o=d84wrete-,ueeuee*wr010",
"97zsgpggjjddjjjjgl3aMmMnmbbxjxdp",
"yihudjjji000idjjkxrhNmxsguwuusee",
"hyiqiuririrraiijzh4avftuueeppaee",
"dyuyi8040rr60wwwrr<rfre9t886qa8e",
"jypys080errrtw5wrgwdbdtw988wus8e",
"q*diir00866w66-240+4a28wr008ue38",
"ppxjdjjj8@ljsffjgffhlhhhpa@tguta",
"ddjyrsjjjinssaffhhdsastidxenfdvx",
"yuppsxxxirxasasfsaaywweetl2fiszk",
"wadkjdchuevfuaaauey9ya9e9y8ayhhh",
"3wjkjszzyentehttsypvmfee9syh9ugs",
"uarwqdae,&feeur6999ppy8998+2,<80",
"#+2<;:::2,te933ty,X8789985,8q9e8",
",ps8tuuaada9uawavg9vhfsputghdghl",
"*su399998598ww66995cp53353gt7448",
">sa3755e39t8680w7y3muy7996usue58",
"-fd69589,ua888609e8v999ye3688r96",
".eh38ugpageuaeruiq:kr08pfetwer18",
"#8peqq83#8atupdsir1iyiiyu,$dfpry",
"vzzjkxjj2afusgjdzzjjjjjplr2Bghgl",
"sfgpgzgxttgeurrrqrreeeuysrqz1uaa",
"gggdjkjxeela0ruuridjjidjje0j3pxe",
"ujbjpxjjeeudiiryirjxpijjzuqd8gxu",
"pgxgpjjj4qjjjpyerdfipjjzxy7pqiui",
">7070077&;r0111>:;-**$*><+ r01<>"
};
